#VRML V2.0 utf8
# Dimension-only illustration: 5.2 x 2.0 x 1.15 mm. KiCad VRML unit = 2.54 mm.
Transform {
  translation 0 0 0.226378
  children [
    Shape {
      appearance Appearance { material Material { diffuseColor 0.12 0.27 0.60 } }
      geometry Box { size 0.787402 1.732283 0.452756 }
    }
  ]
}
Transform {
  translation 0 -0.944882 0.226378
  children [ Shape {
    appearance DEF METAL Appearance { material Material { diffuseColor 0.72 0.74 0.76 specularColor 0.9 0.9 0.9 shininess 0.7 } }
    geometry Box { size 0.787402 0.157480 0.452756 }
  } ]
}
Transform {
  translation 0 0.944882 0.226378
  children [ Shape {
    appearance USE METAL
    geometry Box { size 0.787402 0.157480 0.452756 }
  } ]
}
